<svg xmlns="http://www.w3.org/2000/svg" viewBox="0 0 260 56" fill="none">
  <!-- Circle background -->
  <circle cx="28" cy="28" r="26" fill="#1d6fa4"/>
  <!-- House -->
  <polygon points="28,11 46,24 46,44 10,44 10,24" fill="none" stroke="white" stroke-width="2.2" stroke-linejoin="round"/>
  <polyline points="8,25 28,11 48,25" fill="none" stroke="white" stroke-width="2.2" stroke-linejoin="round" stroke-linecap="round"/>
  <!-- Heart -->
  <path d="M22,29 C22,26.5 24,24.5 26,25.5 C27,26 28,27.5 28,27.5 C28,27.5 29,26 30,25.5 C32,24.5 34,26.5 34,29 C34,31.5 28,37 28,37 C28,37 22,31.5 22,29 Z" fill="#2ecc71"/>
  <!-- Text -->
  <text x="62" y="22" font-family="Arial, Helvetica, sans-serif" font-weight="900" font-size="14" fill="#1a2332">ASSISTENZA</text>
  <text x="62" y="40" font-family="Arial, Helvetica, sans-serif" font-weight="900" font-size="14" fill="#1a2332">ANZIANI</text>
  <!-- AL badge -->
  <rect x="178" y="26" width="28" height="17" rx="4" fill="#2ecc71"/>
  <text x="192" y="39" font-family="Arial, Helvetica, sans-serif" font-weight="900" font-size="12" fill="white" text-anchor="middle">AL</text>
</svg>
